<?xml version="1.0" encoding="UTF-8"?>
<svg width="44px" height="44px" viewBox="0 0 44 44" version="1.1" xmlns="http://www.w3.org/2000/svg" xmlns:xlink="http://www.w3.org/1999/xlink">
    <!-- Generator: Sketch 41.2 (35397) - http://www.bohemiancoding.com/sketch -->
    <title>instagram</title>
    <desc>Created with Sketch.</desc>
    <defs></defs>
    <g id="Page-2" stroke="none" stroke-width="1" fill="none" fill-rule="evenodd">
        <g id="Artboard-3" transform="translate(-478.000000, -3097.000000)">
            <g id="footer" transform="translate(0.000000, 2805.000000)">
                <g id="instagram">
                    <g transform="translate(478.000000, 292.000000)">
                        <circle id="Oval-1" fill="#FFFFFF" cx="22" cy="22" r="22"></circle>
                        <path d="M25.5714286,22.0714286 C25.5714286,21.0855605 25.2226597,20.2438651 24.5251116,19.546317 C23.8275635,18.8487688 22.985868,18.5 22,18.5 C21.014132,18.5 20.1724365,18.8487688 19.4748884,19.546317 C18.7773403,20.2438651 18.4285714,21.0855605 18.4285714,22.0714286 C18.4285714,23.0572966 18.7773403,23.898992 19.4748884,24.5965402 C20.1724365,25.2940883 21.014132,25.6428571 22,25.6428571 C22.985868,25.6428571 23.8275635,25.2940883 24.5251116,24.5965402 C25.2226597,23.898992 25.5714286,23.0572966 25.5714286,22.0714286 L25.5714286,22.0714286 Z M27.4966518,22.0714286 C27.4966518,23.5967338 26.9618729,24.8941539 25.8922991,25.9637277 C24.8227253,27.0333015 23.5253052,27.5680804 22,27.5680804 C20.4746948,27.5680804 19.1772747,27.0333015 18.1077009,25.9637277 C17.0381271,24.8941539 16.5033482,23.5967338 16.5033482,22.0714286 C16.5033482,20.5461233 17.0381271,19.2487033 18.1077009,18.1791295 C19.1772747,17.1095557 20.4746948,16.5747768 22,16.5747768 C23.5253052,16.5747768 24.8227253,17.1095557 25.8922991,18.1791295 C26.9618729,19.2487033 27.4966518,20.5461233 27.4966518,22.0714286 L27.4966518,22.0714286 Z M29.0033482,16.3515625 C29.0033482,16.7049869 28.8777914,17.0072532 28.6266741,17.2583705 C28.3755568,17.5094879 28.0732905,17.6350446 27.7198661,17.6350446 C27.3664417,17.6350446 27.0641754,17.5094879 26.813058,17.2583705 C26.5619407,17.0072532 26.4363839,16.7049869 26.4363839,16.3515625 C26.4363839,15.9981381 26.5619407,15.6958718 26.813058,15.4447545 C27.0641754,15.1936371 27.3664417,15.0680804 27.7198661,15.0680804 C28.0732905,15.0680804 28.3755568,15.1936371 28.6266741,15.4447545 C28.8777914,15.6958718 29.0033482,15.9981381 29.0033482,16.3515625 L29.0033482,16.3515625 Z M22,13.2823661 C21.9348955,13.2823661 21.5791513,13.2800409 20.9327567,13.2753906 C20.2863621,13.2707403 19.7957606,13.2707403 19.4609375,13.2753906 C19.1261144,13.2800409 18.6773652,13.2939917 18.1146763,13.3172433 C17.5519875,13.3404949 17.0730116,13.3869974 16.6777344,13.4567522 C16.2824571,13.526507 15.9499641,13.6125367 15.6802455,13.7148438 C15.2152134,13.9008566 14.8059914,14.1705711 14.452567,14.5239955 C14.0991426,14.8774199 13.829428,15.286642 13.6434152,15.7516741 C13.5411081,16.0213927 13.4550785,16.3538857 13.3853237,16.7491629 C13.3155688,17.1444402 13.2690663,17.6234161 13.2458147,18.1861049 C13.2225631,18.7487937 13.2086124,19.197543 13.2039621,19.5323661 C13.1993117,19.8671892 13.1993117,20.3577907 13.2039621,21.0041853 C13.2086124,21.6505799 13.2109375,22.0063241 13.2109375,22.0714286 C13.2109375,22.1365331 13.2086124,22.4922773 13.2039621,23.1386719 C13.1993117,23.7850665 13.1993117,24.275668 13.2039621,24.6104911 C13.2086124,24.9453142 13.2225631,25.3940634 13.2458147,25.9567522 C13.2690663,26.5194411 13.3155688,26.9984169 13.3853237,27.3936942 C13.4550785,27.7889715 13.5411081,28.1214644 13.6434152,28.391183 C13.829428,28.8562151 14.0991426,29.2654372 14.452567,29.6188616 C14.8059914,29.972286 15.2152134,30.2420006 15.6802455,30.4280134 C15.9499641,30.5303205 16.2824571,30.6163501 16.6777344,30.6861049 C17.0730116,30.7558597 17.5519875,30.8023622 18.1146763,30.8256138 C18.6773652,30.8488654 19.1261144,30.8628162 19.4609375,30.8674665 C19.7957606,30.8721168 20.2863621,30.8721168 20.9327567,30.8674665 C21.5791513,30.8628162 21.9348955,30.8604911 22,30.8604911 C22.0651045,30.8604911 22.4208487,30.8628162 23.0672433,30.8674665 C23.7136379,30.8721168 24.2042394,30.8721168 24.5390625,30.8674665 C24.8738856,30.8628162 25.3226348,30.8488654 25.8853237,30.8256138 C26.4480125,30.8023622 26.9269884,30.7558597 27.3222656,30.6861049 C27.7175429,30.6163501 28.0500359,30.5303205 28.3197545,30.4280134 C28.7847866,30.2420006 29.1940086,29.972286 29.547433,29.6188616 C29.9008574,29.2654372 30.170572,28.8562151 30.3565848,28.391183 C30.4588919,28.1214644 30.5449215,27.7889715 30.6146763,27.3936942 C30.6844312,26.9984169 30.7309337,26.5194411 30.7541853,25.9567522 C30.7774369,25.3940634 30.7913876,24.9453142 30.7960379,24.6104911 C30.8006883,24.275668 30.8006883,23.7850665 30.7960379,23.1386719 C30.7913876,22.4922773 30.7890625,22.1365331 30.7890625,22.0714286 C30.7890625,22.0063241 30.7913876,21.6505799 30.7960379,21.0041853 C30.8006883,20.3577907 30.8006883,19.8671892 30.7960379,19.5323661 C30.7913876,19.197543 30.7774369,18.7487937 30.7541853,18.1861049 C30.7309337,17.6234161 30.6844312,17.1444402 30.6146763,16.7491629 C30.5449215,16.3538857 30.4588919,16.0213927 30.3565848,15.7516741 C30.170572,15.286642 29.9008574,14.8774199 29.547433,14.5239955 C29.1940086,14.1705711 28.7847866,13.9008566 28.3197545,13.7148438 C28.0500359,13.6125367 27.7175429,13.526507 27.3222656,13.4567522 C26.9269884,13.3869974 26.4480125,13.3404949 25.8853237,13.3172433 C25.3226348,13.2939917 24.8738856,13.2800409 24.5390625,13.2753906 C24.2042394,13.2707403 23.7136379,13.2707403 23.0672433,13.2753906 C22.4208487,13.2800409 22.0651045,13.2823661 22,13.2823661 L22,13.2823661 Z M32.7142857,22.0714286 C32.7142857,24.2012755 32.6910345,25.6754051 32.6445312,26.4938616 C32.5515248,28.4283951 31.9748937,29.9257759 30.9146205,30.9860491 C29.8543474,32.0463223 28.3569665,32.6229534 26.422433,32.7159598 C25.6039766,32.762463 24.129847,32.7857143 22,32.7857143 C19.870153,32.7857143 18.3960234,32.762463 17.577567,32.7159598 C15.6430335,32.6229534 14.1456526,32.0463223 13.0853795,30.9860491 C12.0251063,29.9257759 11.4484752,28.4283951 11.3554687,26.4938616 C11.3089655,25.6754051 11.2857143,24.2012755 11.2857143,22.0714286 C11.2857143,19.9415816 11.3089655,18.467452 11.3554687,17.6489955 C11.4484752,15.7144621 12.0251063,14.2170812 13.0853795,13.156808 C14.1456526,12.0965349 15.6430335,11.5199037 17.577567,11.4268973 C18.3960234,11.3803941 19.870153,11.3571429 22,11.3571429 C24.129847,11.3571429 25.6039766,11.3803941 26.422433,11.4268973 C28.3569665,11.5199037 29.8543474,12.0965349 30.9146205,13.156808 C31.9748937,14.2170812 32.5515248,15.7144621 32.6445312,17.6489955 C32.6910345,18.467452 32.7142857,19.9415816 32.7142857,22.0714286 L32.7142857,22.0714286 Z" id="" fill="#1D3535" opacity="0.5"></path>
                    </g>
                </g>
            </g>
        </g>
    </g>
</svg>