<?xml version="1.0" encoding="UTF-8"?>
<svg width="138px" height="8px" viewBox="0 0 138 8" version="1.1" xmlns="http://www.w3.org/2000/svg" xmlns:xlink="http://www.w3.org/1999/xlink">
    <!-- Generator: Sketch 41.2 (35397) - http://www.bohemiancoding.com/sketch -->
    <title>separator</title>
    <desc>Created with Sketch.</desc>
    <defs></defs>
    <g id="Page-2" stroke="none" stroke-width="1" fill="none" fill-rule="evenodd">
        <g id="Artboard-3" transform="translate(-431.000000, -1303.000000)" fill="#50E3C2">
            <g id="Group-11" transform="translate(190.000000, 1286.000000)">
                <g id="Group-10" transform="translate(0.000000, 17.000000)">
                    <path d="M304.815029,0.00248680975 L304.815029,0.00217030897 C307.85166,0.0267671439 309.399713,1.80738508 310.765022,3.38134137 C312.038718,4.84967596 313.138783,6.11761869 315.366493,6.11761869 C317.593964,6.11761869 318.693549,4.84967596 319.967006,3.38134137 C321.341907,1.79629239 322.900273,0 325.979113,0 C329.057952,0 330.616318,1.79629239 331.99098,3.38134137 C333.264676,4.84967596 334.364262,6.11761869 336.591972,6.11761869 C338.819442,6.11761869 339.919507,4.84967596 341.192964,3.38134137 C342.567865,1.79629239 344.126231,0 347.205071,0 C350.28439,0 351.842755,1.79629239 353.217657,3.38134137 C354.491114,4.84967596 355.591419,6.11761869 357.819129,6.11761869 C360.047078,6.11761869 361.147144,4.84967596 362.42084,3.38134137 C363.795742,1.79629239 365.353868,0 368.432947,0 C371.511787,0 373.069912,1.79629239 374.445054,3.38134137 C375.709637,4.83906556 376.804186,6.09760362 379,6.11593067 L379,7.99807084 C375.952817,7.97950264 374.402126,6.19526752 373.034179,4.61841748 C371.760482,3.15008289 370.660417,1.88238131 368.432947,1.88238131 C366.205237,1.88238131 365.104932,3.15008289 363.831955,4.61841748 C362.456574,6.20346647 360.898208,8 357.819129,8 C354.740049,8 353.181684,6.20346647 351.806782,4.61889977 C350.533325,3.15056518 349.43326,1.88238131 347.205071,1.88238131 C344.9776,1.88238131 343.877295,3.15008289 342.603839,4.61841748 C341.228937,6.20346647 339.670811,8 336.591972,8 C333.513132,8 331.954766,6.20346647 330.580105,4.61889977 C329.306648,3.15056518 328.206823,1.88238131 325.979113,1.88238131 C323.751643,1.88238131 322.651577,3.15056518 321.377881,4.61889977 C320.003219,6.20346647 318.445093,8 315.366493,8 C315.305391,8 315.244887,7.99929262 315.184971,7.99789356 C312.137788,7.97950264 310.587097,6.19526752 309.21915,4.61841748 C307.945453,3.15008289 306.845388,1.88238131 304.617918,1.88238131 C302.390208,1.88238131 301.289903,3.15008289 300.016926,4.61841748 C298.641545,6.20346647 297.083179,8 294.0041,8 C290.92502,8 289.366655,6.20346647 287.991753,4.61889977 C286.718296,3.15056518 285.618231,1.88238131 283.390042,1.88238131 C281.162572,1.88238131 280.062267,3.15008289 278.78881,4.61841748 C277.413908,6.20346647 275.855782,8 272.776943,8 C269.698103,8 268.139738,6.20346647 266.765076,4.61889977 C265.491619,3.15056518 264.391794,1.88238131 262.164084,1.88238131 C259.936614,1.88238131 258.836548,3.15056518 257.562852,4.61889977 C256.18819,6.20346647 254.630064,8 251.551465,8 C248.472145,8 246.914019,6.20346647 245.539118,4.61841748 C244.277892,3.16406933 243.185022,1.90842502 241,1.88455162 L241,0.00217030897 C244.036631,0.0267671439 245.584684,1.80738508 246.949993,3.38134137 C248.223689,4.84967596 249.323755,6.11761869 251.551465,6.11761869 C253.778935,6.11761869 254.87852,4.84967596 256.151977,3.38134137 C257.526879,1.79629239 259.085244,0 262.164084,0 C265.242923,0 266.801289,1.79629239 268.175951,3.38134137 C269.449647,4.84967596 270.549233,6.11761869 272.776943,6.11761869 C275.004413,6.11761869 276.104478,4.84967596 277.377935,3.38134137 C278.752836,1.79629239 280.311202,0 283.390042,0 C286.469361,0 288.027727,1.79629239 289.402628,3.38134137 C290.676085,4.84967596 291.77639,6.11761869 294.0041,6.11761869 C296.23205,6.11761869 297.332115,4.84967596 298.605811,3.38134137 C299.980713,1.79629239 301.538839,0 304.617918,0 C304.684325,0 304.750024,0.000835651087 304.815029,0.00248680975 Z" id="separator"></path>
                </g>
            </g>
        </g>
    </g>
</svg>