<?xml version="1.0" encoding="UTF-8"?>
<svg width="44px" height="44px" viewBox="0 0 44 44" version="1.1" xmlns="http://www.w3.org/2000/svg" xmlns:xlink="http://www.w3.org/1999/xlink">
    <!-- Generator: Sketch 41.2 (35397) - http://www.bohemiancoding.com/sketch -->
    <title>tumblr</title>
    <desc>Created with Sketch.</desc>
    <defs></defs>
    <g id="Page-2" stroke="none" stroke-width="1" fill="none" fill-rule="evenodd">
        <g id="Artboard-3" transform="translate(-536.000000, -3097.000000)">
            <g id="footer" transform="translate(0.000000, 2805.000000)">
                <g id="tumblr">
                    <g transform="translate(536.000000, 292.000000)">
                        <circle id="Oval-1" fill="#FFFFFF" cx="22" cy="22" r="22"></circle>
                        <path d="M27.1724351,28.3431888 C26.7745551,28.5357113 26.0172998,28.7025642 25.452567,28.7153991 C23.7326988,28.7539036 23.3989931,27.5089244 23.3989931,26.6104858 L23.3989931,19.9620404 L27.6858286,19.9620404 L27.6858286,16.7276616 L23.4118279,16.7276616 L23.4118279,11.2856908 L20.2801278,11.2856908 C20.2287884,11.2856908 20.1389446,11.3370301 20.1261097,11.4397088 C19.946422,13.1082376 19.163497,16.0345804 15.9291181,17.2025505 L15.9291181,19.9620404 L18.0853707,19.9620404 L18.0853707,26.9441916 C18.0853707,29.3314712 19.8437433,32.7198681 24.502789,32.6428591 C26.0686391,32.6171894 27.8141769,31.9626128 28.199222,31.3850451 L27.1724351,28.3431888 Z" id="" fill-opacity="0.445567255" fill="#1D3535"></path>
                    </g>
                </g>
            </g>
        </g>
    </g>
</svg>