<?xml version="1.0" encoding="UTF-8"?>
<svg width="44px" height="44px" viewBox="0 0 44 44" version="1.1" xmlns="http://www.w3.org/2000/svg" xmlns:xlink="http://www.w3.org/1999/xlink">
    <!-- Generator: Sketch 41.2 (35397) - http://www.bohemiancoding.com/sketch -->
    <title>youtube</title>
    <desc>Created with Sketch.</desc>
    <defs></defs>
    <g id="Page-2" stroke="none" stroke-width="1" fill="none" fill-rule="evenodd">
        <g id="Artboard-3" transform="translate(-594.000000, -3097.000000)">
            <g id="footer" transform="translate(0.000000, 2805.000000)">
                <g id="youtube">
                    <g transform="translate(594.000000, 292.000000)">
                        <path d="M22,44 C34.1502645,44 44,34.1502645 44,22 C44,9.8497355 34.1502645,0 22,0 C9.8497355,0 0,9.8497355 0,22 C0,34.1502645 9.8497355,44 22,44 Z" id="Oval-1" fill="#FFFFFF"></path>
                        <path d="M26.4285714,21.9988157 C26.4285714,21.7629395 26.3337063,21.5908162 26.1439732,21.4824407 L21.2868304,18.4224407 C21.0907728,18.29494 20.8852317,18.2885651 20.6702009,18.4033157 C20.4614945,18.5180663 20.3571429,18.6965645 20.3571429,18.9388157 L20.3571429,25.0588157 C20.3571429,25.3010669 20.4614945,25.4795651 20.6702009,25.5943157 C20.7713919,25.6453159 20.8694192,25.6708157 20.9642857,25.6708157 C21.0907744,25.6708157 21.1982882,25.638941 21.2868304,25.5751907 L26.1439732,22.5151907 C26.3337063,22.4068151 26.4285714,22.2346919 26.4285714,21.9988157 L26.4285714,21.9988157 Z M35,22 C35,22.9000045 34.9953497,23.6031225 34.9860491,24.109375 C34.9767485,24.6156275 34.9372213,25.2554649 34.8674665,26.0289063 C34.7977117,26.8023476 34.6930811,27.493747 34.5535714,28.103125 C34.4047612,28.7875034 34.0838938,29.3640602 33.5909598,29.8328125 C33.0980258,30.3015648 32.5213947,30.5734371 31.8610491,30.6484375 C29.7963066,30.8828137 26.6759881,31 22.5,31 C18.3240119,31 15.2036934,30.8828137 13.1389509,30.6484375 C12.4786053,30.5734371 11.8996491,30.3015648 11.4020647,29.8328125 C10.9044804,29.3640602 10.5812879,28.7875034 10.4324777,28.103125 C10.3022687,27.493747 10.2022883,26.8023476 10.1325335,26.0289063 C10.0627787,25.2554649 10.0232515,24.6156275 10.0139509,24.109375 C10.0046503,23.6031225 10,22.9000045 10,22 C10,21.0999955 10.0046503,20.3968775 10.0139509,19.890625 C10.0232515,19.3843725 10.0627787,18.7445351 10.1325335,17.9710937 C10.2022883,17.1976524 10.3069189,16.506253 10.4464286,15.896875 C10.5952388,15.2124966 10.9161062,14.6359398 11.4090402,14.1671875 C11.9019742,13.6984352 12.4786053,13.4265629 13.1389509,13.3515625 C15.2036934,13.1171863 18.3240119,13 22.5,13 C26.6759881,13 29.7963066,13.1171863 31.8610491,13.3515625 C32.5213947,13.4265629 33.1003509,13.6984352 33.5979353,14.1671875 C34.0955196,14.6359398 34.4187121,15.2124966 34.5675223,15.896875 C34.6977313,16.506253 34.7977117,17.1976524 34.8674665,17.9710937 C34.9372213,18.7445351 34.9767485,19.3843725 34.9860491,19.890625 C34.9953497,20.3968775 35,21.0999955 35,22 L35,22 Z" id="" fill-opacity="0.445567255" fill="#1D3535"></path>
                    </g>
                </g>
            </g>
        </g>
    </g>
</svg>